<?xml version="1.0" standalone="no"?>
<!DOCTYPE svg PUBLIC "-//W3C//DTD SVG 1.1//EN" "http://www.w3.org/Graphics/SVG/1.1/DTD/svg11.dtd" >
<!--
2013-9-30: Created.
-->
<svg>
<metadata>
Created by iconfont
</metadata>
<defs>

<font id="iconfont" horiz-adv-x="1024" >
  <font-face
    font-family="iconfont"
    font-weight="500"
    font-stretch="normal"
    units-per-em="1024"
    ascent="896"
    descent="-128"
  />
    <missing-glyph />
    
    <glyph glyph-name="x" unicode="x" horiz-adv-x="1001"
d="M281 543q-27 -1 -53 -1h-83q-18 0 -36.5 -6t-32.5 -18.5t-23 -32t-9 -45.5v-76h912v41q0 16 -0.5 30t-0.5 18q0 13 -5 29t-17 29.5t-31.5 22.5t-49.5 9h-133v-97h-438v97zM955 310v-52q0 -23 0.5 -52t0.5 -58t-10.5 -47.5t-26 -30t-33 -16t-31.5 -4.5q-14 -1 -29.5 -0.5
t-29.5 0.5h-32l-45 128h-439l-44 -128h-29h-34q-20 0 -45 1q-25 0 -41 9.5t-25.5 23t-13.5 29.5t-4 30v167h911zM163 247q-12 0 -21 -8.5t-9 -21.5t9 -21.5t21 -8.5q13 0 22 8.5t9 21.5t-9 21.5t-22 8.5zM316 123q-8 -26 -14 -48q-5 -19 -10.5 -37t-7.5 -25t-3 -15t1 -14.5
t9.5 -10.5t21.5 -4h37h67h81h80h64h36q23 0 34 12t2 38q-5 13 -9.5 30.5t-9.5 34.5q-5 19 -11 39h-368zM336 498v228q0 11 2.5 23t10 21.5t20.5 15.5t34 6h188q31 0 51.5 -14.5t20.5 -52.5v-227h-327z" />
    

    
    <glyph glyph-name="iconfontcuo" unicode="&#59015;" d="M512.001535 811.826038C229.335385 811.826038 0.154526 582.653545 0.154526 300s229.18086-511.826038 511.847009-511.826038 511.844963 229.172493 511.844963 511.826038S794.666661 811.826038 512.001535 811.826038zM756.28599 126.793146l-71.395929-71.352071c-4.433144-4.493338-10.923218-5.624091-16.415527-3.560082-2.05693 0.716314-3.929657 1.930979-5.55064 3.560082L511.900224 206.486186 360.819246 55.442098c-1.62303-1.629103-3.560228-2.844791-5.557804-3.560082-5.493333-2.089591-11.982383-0.933255-16.476928 3.560082l-71.326341 71.352071c-4.493522 4.433986-5.617158 10.923794-3.560228 16.415878 0.748067 2.055822 1.939245 3.959172 3.560228 5.590322l151.082001 151.042041L267.458173 450.85887c-1.622007 1.6158-2.813184 3.521197-3.560228 5.583159-2.120377 5.492084-0.933293 11.981892 3.560228 16.408715l71.326341 71.364351c4.494545 4.493338 10.983595 5.609765 16.476928 3.552919 1.997576-0.716314 3.934774-1.937119 5.557804-3.552919l151.082001-151.049205 151.022647 151.049205c1.620983 1.6158 3.493711 2.837628 5.55064 3.552919 5.492309 2.089591 11.983407 0.940418 16.415527-3.552919l71.395929-71.364351c4.493522-4.426823 5.614088-10.916631 3.493711-16.408715-0.689737-2.061962-1.87068-3.967358-3.493711-5.583159L605.260273 299.841388 756.284966 148.799346c1.62303-1.630127 2.803974-3.5345 3.494734-5.590322C761.900078 137.71694 760.778488 131.227132 756.28599 126.793146z"  horiz-adv-x="1024" />

    
    <glyph glyph-name="geren" unicode="&#58883;" d="M593.635038 221.755961l0 28.314883c79.28492 41.312918 142.893169 136.788409 142.893169 234.089479 0 129.314181-112.342134 234.135528-224.528719 234.135528S287.470769 613.473481 287.470769 484.160323c0-97.30107 63.60825-192.776561 142.892146-234.088456l0-28.190039C152.798156 173.218502 103.77978-118.304038 103.77978-118.304038l816.439416 0.272199C920.219196-118.032862 868.276092 172.733455 593.635038 221.755961z"  horiz-adv-x="1024" />

    
    <glyph glyph-name="libao" unicode="&#58884;" d="M592.674014 459.251948c55.512871 0 124.468683 28.784527 168.31757 68.928192 64.594861 59.248783 76.281351 144.611101 26.016352 190.71156-21.048775 19.258565-51.380044 28.58607-80.477602 28.58607-42.847393 0-90.064943-17.974729-127.638889-52.40609-30.772172-28.218821-55.420803-67.773251-67.385542-106.440759-10.731029 23.930501-23.82002 46.019644-37.317179 63.153487-45.384376 57.609974-98.183289 75.506957-117.834677 76.599497-40.192767 2.235205-80.597291-9.327504-101.652204-28.587093-50.239425-46.098414-38.545774-131.461754 26.073638-190.710537 43.7916-40.143664 112.717746-68.928192 168.290973-68.928192 26.301762 0 49.644052-34.089686 65.790721-19.286186 13.66595 12.527377 20.437035 30.808999 22.100396 52.007129C552.111952 463.459453 571.395069 459.251948 592.674014 459.251948zM624.741275 656.643548c23.024144 21.051844 73.255385 44.160895 108.691309 26.446002 0 0 16.492436-8.046737 13.75188-40.454649-1.401479-16.43208-9.07176-52.576927-34.612428-76.001055-31.232511-28.616759-83.266238-53.47817-119.899045-47.729039-14.376919 2.253618-16.721582 12.038394-16.721582 12.038394C569.105646 544.694058 581.485714 617.014442 624.741275 656.643548zM493.830905 432.709786c-0.025574-0.025574-31.844252 65.562597-44.766498 67.102178-62.877283 7.615041-88.668579 26.702769-119.874494 55.315437-25.565219 23.422082-34.691197 54.460228-34.691197 70.952663 0 14.690973 6.505111 20.652883 8.643133 22.566873 9.38786 8.643133 17.821283 9.399113 32.038617 9.898326 28.065375-0.164699 58.765938-10.06814 81.816679-31.126122C460.537095 587.510761 499.565714 443.949235 493.830905 432.709786zM535.564276 406.381427l0-230.771341 326.998697 0-0.428627 161.843149c0 35.518785-10.155093 68.928192-46.275389 68.928192L535.564276 406.381427zM535.564276-147.47777l260.892899 0c36.121319 0 65.677171 29.07403 65.677171 64.589746l0.428627 212.337295L535.564276 129.449271 535.564276-147.47777zM161.437027 339.966689l0.395892-164.35558 327.028364 0L488.861283 406.381427 208.541027 406.381427C172.415616 406.381427 161.437027 375.512072 161.437027 339.966689zM161.437027-77.80792c0-35.520831 10.979612-69.668827 47.105023-69.668827L488.86026-147.476747 488.86026 129.449271 161.832919 129.449271 161.437027-77.80792zM212.545982 792.553207l50.893107-30.689311L212.545982 792.553207z"  horiz-adv-x="1024" />

    
    <glyph glyph-name="meishi" unicode="&#58893;" d="M939.6458 230.634166c5.364171 9.103332 9.031701 19.022239 8.965186 29.754674 0 10.530844-3.734044 19.971867-8.828063 28.463262 8.351202 4.142343 16.363689 8.831132 23.084765 15.558347 16.022928 16.098653 24.918529 37.499056 24.918529 60.188824 0 18.546402-7.265474 34.782178-17.382902 48.843428 2.989077 1.699712 5.567809 4.212952 7.335059 7.337105 3.530406 6.113231 3.323699 13.656021-0.340761 19.769252-100.0773 164.263158-273.961582 262.426875-465.428312 262.426875-191.397145 0-365.414457-98.163717-465.425242-262.426875-3.667529-6.113231-3.801583-13.656021-0.273223-19.769252 1.76725-3.125177 4.142343-5.637394 7.131421-7.337105-10.254551-14.334473-17.245779-30.842449-17.179264-48.843428 0-33.491789 19.827581-61.819974 48.003294-75.747171-5.228071-8.831132-8.962116-18.545378-8.962116-29.550013 0.134053-10.666944 3.937682-20.107967 8.962116-28.667923-8.283664-4.14439-16.431228-8.762571-23.151279-15.558347-16.022928-16.1007-24.918529-37.565571-24.850991-60.255339 0-18.004049 6.857175-33.763988 16.363689-47.554062-8.962116-1.699712-16.160051-8.559956-16.363689-18.003026-0.814552-73.706699 58.458413-134.372384 132.261303-135.255497l684.122149 0c0.203638 0 1.627057 0 1.627057 0 72.78777 0 132.671649 59.305711 133.553739 135.052882 0 9.578146-7.398504 16.505929-16.430204 18.205641 9.776667 14.129812 16.430204 30.026874 16.430204 47.554062C987.785194 188.312268 967.891098 216.706969 939.6458 230.634166zM850.227258 490.231599c0 0.080841 0.065492 0.146333 0.146333 0.146333l51.703569 0c0.080841 0 0.146333-0.065492 0.146333-0.146333l0-43.290969c0-0.080841-0.065492-0.146333-0.146333-0.146333l-51.703569 0c-0.080841 0-0.146333 0.065492-0.146333 0.146333L850.227258 490.231599zM680.159908 592.362674c0 0.080841 0.065492 0.146333 0.146333 0.146333l51.703569 0c0.080841 0 0.146333-0.065492 0.146333-0.146333l0-43.290969c0-0.080841-0.065492-0.146333-0.146333-0.146333l-51.703569 0c-0.080841 0-0.146333 0.065492-0.146333 0.146333L680.159908 592.362674zM612.134605 660.450399c0 0.080841 0.065492 0.146333 0.146333 0.146333l51.700499 0c0.080841 0 0.146333-0.065492 0.146333-0.146333l0-43.290969c0-0.080841-0.065492-0.146333-0.146333-0.146333l-51.700499 0c-0.080841 0-0.146333 0.065492-0.146333 0.146333L612.134605 660.450399zM510.092557 456.186202c0 0.080841 0.065492 0.146333 0.146333 0.146333l51.703569 0c0.080841 0 0.146333-0.065492 0.146333-0.146333l0-43.290969c0-0.080841-0.065492-0.146333-0.146333-0.146333l-51.703569 0c-0.080841 0-0.146333 0.065492-0.146333 0.146333L510.092557 456.186202zM408.05358 558.319323c0 0.080841 0.065492 0.146333 0.146333 0.146333l51.703569 0c0.080841 0 0.146333-0.065492 0.146333-0.146333l0-43.290969c0-0.080841-0.065492-0.146333-0.146333-0.146333l-51.703569 0c-0.080841 0-0.146333 0.065492-0.146333 0.146333L408.05358 558.319323zM306.011532 626.407048c0 0.080841 0.065492 0.146333 0.146333 0.146333l51.703569 0c0.080841 0 0.146333-0.065492 0.146333-0.146333l0-43.290969c0-0.080841-0.065492-0.146333-0.146333-0.146333l-51.703569 0c-0.080841 0-0.146333 0.065492-0.146333 0.146333L306.011532 626.407048zM169.957857 490.231599c0 0.080841 0.065492 0.146333 0.146333 0.146333l51.703569 0c0.080841 0 0.146333-0.065492 0.146333-0.146333l0-43.290969c0-0.080841-0.065492-0.146333-0.146333-0.146333l-51.703569 0c-0.080841 0-0.146333 0.065492-0.146333 0.146333L169.957857 490.231599zM122.493845 371.429843l782.41071 1.063215c25.25929 0 42.565445-3.696182 42.641169-29.239951 0.063445-21.017686-18.155499-24.713868-44.7676-24.713868L121.161501 318.539238c-15.274892 0-35.385928 2.951215-35.486212 28.91454C85.676311 373.582879 110.138446 371.429843 122.493845 371.429843zM811.800064 240.143751c-4.415566 0-8.761548-1.563612-12.154831-4.27742L680.758542 140.554568l-119.494535 95.311763c-3.533476 2.78237-7.742335 4.27742-12.222369 4.27742 0 0 25.78834 0.005117 61.383022 0.010233 21.405519 0.005117 71.38277-49.233308 71.38277-49.233308s50.182936 49.255821 71.89647 49.25889C811.764248 240.188776 811.800064 240.143751 811.800064 240.143751zM81.706907 169.714701c0 25.359574 14.104229 31.299867 39.724747 31.299867l420.74974 0 80.758302-56.218396-499.381611-0.703011C98.232279 144.093161 81.706907 144.239494 81.706907 169.714701zM937.943019 8.803895c0-0.069585-0.056282-0.124843-0.124843-0.124843L93.89653 8.679052c-0.069585 0-0.124843 0.056282-0.124843 0.124843l0 53.659107c0 0.069585 0.056282 0.124843 0.124843 0.124843l843.921645 0c0.069585 0 0.124843-0.056282 0.124843-0.124843L937.943019 8.803895zM902.438387 147.987864l-163.856905-1.065262 80.07371 54.091966 83.784218 0c12.70844 0 42.98193-0.50449 42.98193-26.048259C945.420317 149.693716 915.396513 147.987864 902.438387 147.987864z"  horiz-adv-x="1024" />

    
    <glyph glyph-name="dingwei1" unicode="&#58924;" d="M845.339436 109.397964c-10.843976-7.760754-23.424502-15.089673-37.47552-21.933545 22.36538-21.034059 35.026748-39.279608 35.026748-64.409962 0-86.211501-148.139945-150.629649-330.891176-150.629649-182.745091 0-330.889129 64.418148-330.889129 150.629649 0 25.131377 12.664438 43.376926 35.028794 64.405869-14.057157 6.844895-26.63666 14.176884-37.477566 21.937638-33.446763-26.964118-52.700269-58.322313-52.700269-91.821265 0-100.583836 172.836417-187.600679 386.03817-187.600679 213.20994 0 386.040217 87.016843 386.040217 187.600679C898.038682 51.075651 878.782106 82.434869 845.339436 109.397964zM511.998465 42.092046c0 0 310.62255 283.687084 310.62255 455.199343 0 171.604356-139.018194 310.61641-310.62255 310.61641-171.553191 0-310.617433-139.012054-310.617433-310.61641C201.380008 325.778106 511.998465 42.092046 511.998465 42.092046zM399.090952 511.19505c0 62.359256 50.55235 112.958678 112.960725 112.958678 62.35721 0 112.957655-50.599422 112.957655-112.958678 0-62.358233-50.600445-112.907513-112.957655-112.907513C449.643302 398.286514 399.090952 448.836817 399.090952 511.19505z"  horiz-adv-x="1024" />

    
    <glyph glyph-name="caidan" unicode="&#58933;" d="M190.518125 459.555949c-70.555939 0-127.721917-57.181327-127.721917-127.72908 0-70.527286 57.167001-127.718847 127.721917-127.718847 70.51603 0 127.72908 57.19156 127.72908 127.718847C318.247204 402.374622 261.034155 459.555949 190.518125 459.555949zM190.518125 246.676537c-46.981011 0-85.153402 38.186717-85.153402 85.149309 0 46.973848 38.172391 85.156472 85.153402 85.156472 46.941102 0 85.149309-38.182624 85.149309-85.156472C275.667433 284.863255 237.459227 246.676537 190.518125 246.676537zM832.278467 459.555949c-70.555939 0-127.72601-57.181327-127.72601-127.72908 0-70.527286 57.170071-127.718847 127.72601-127.718847 70.51296 0 127.72601 57.19156 127.72601 127.718847C960.004477 402.374622 902.791427 459.555949 832.278467 459.555949zM832.278467 246.676537c-46.941102 0-85.149309 38.186717-85.149309 85.149309 0 46.973848 38.208207 85.156472 85.149309 85.156472 46.938032 0 85.149309-38.182624 85.149309-85.156472C917.427776 284.863255 879.216499 246.676537 832.278467 246.676537zM508.652765 459.555949c-70.555939 0-127.721917-57.181327-127.721917-127.72908 0-70.527286 57.167001-127.718847 127.721917-127.718847 70.51603 0 127.72601 57.19156 127.72601 127.718847C636.378775 402.374622 579.168796 459.555949 508.652765 459.555949zM508.652765 246.676537c-46.938032 0-85.149309 38.186717-85.149309 85.149309 0 46.973848 38.211277 85.156472 85.149309 85.156472 46.945195 0 85.153402-38.182624 85.153402-85.156472C593.806167 284.863255 555.597961 246.676537 508.652765 246.676537z"  horiz-adv-x="1024" />

    
    <glyph glyph-name="mobile" unicode="&#58885;" d="M745.302 736.323h-469.269c0 0-67.398 0.968-67.398-63.686l-0.345-768.257c0 0-6.318-63.34 64.238-63.34h475.933c0 0 65.276-0.968 65.276 60.756l0 770.841c0 0 2.121 63.686-68.435 63.686v0zM443.108 705.447h134.795v-30.874h-134.795v30.874zM392.566 705.447c9.292 0 16.855-6.918 16.855-15.449 0-8.508-7.563-15.425-16.855-15.425-9.316 0-16.855 6.917-16.855 15.425-0 8.531 7.54 15.449 16.855 15.449v0zM510.506-97.236c-18.608 0-33.71 13.812-33.71 30.874 0 17.039 15.102 30.898 33.71 30.898 18.584 0 33.686-13.859 33.686-30.898 0-17.063-15.102-30.874-33.686-30.874v0zM747.769 26.239h-474.55l0 617.437h474.55v-617.437zM747.769 26.239z"  horiz-adv-x="1024" />

    
    <glyph glyph-name="jian" unicode="&#58943;" d="M501.260913 369.156944l53.671387 0 0-107.339704-53.671387 0 0 107.339704ZM851.23368 831.615621 172.765297 831.615621c-59.156308 0-107.125833-47.969525-107.125833-107.125833l0-678.467359c0-59.154261 47.969525-107.123786 107.125833-107.123786l678.468382 0c59.156308 0 107.125833 47.969525 107.125833 107.123786L958.359512 724.489788C958.358489 783.645073 910.388964 831.615621 851.23368 831.615621zM711.463356 691.182194c26.565029-20.400632 52.002374-40.817638 76.042907-60.930721l-31.30089-28.520567c-23.482831 21.242813-48.651047 42.485627-76.042907 64.301492L711.463356 691.182194zM264.225335 637.512854c25.148773-34.938744 50.587142-72.116481 76.024487-111.805412L291.042097 494.390179c-31.298843 50.873668-56.736189 89.451288-76.024487 116.28647L264.225335 637.512854zM197.127148 171.522748c23.196305 67.366294 46.965661 151.225213 71.561849 251.306606 18.444071-7.546883 36.335556-14.251585 53.670363-20.13048-17.891486-65.12423-41.930995-147.871839-71.560826-248.223385L197.127148 171.522748zM501.260913 190.258461l-53.671387 0L447.589526 404.938891l161.013137 0 0-178.903599L501.260913 226.035292 501.260913 190.258461zM429.699064 458.609255 429.699064 494.390179l178.902576 0 0-35.780925L429.699064 458.609255zM823.284117 548.060543 662.560576 548.060543c1.39886-99.239212 11.453866-178.61605 30.455639-238.165308 23.483854 54.780651 43.058678 116.28647 58.707077 184.494944l53.671387-15.649422c-27.121707-88.608084-59.532885-166.337399-97.28572-232.860489 8.391111-37.178761 18.46556-65.681932 29.634948-85.255733 10.629081-15.936971 18.174941-12.298094 22.370497 10.631128 3.6399 24.593118 6.702656 54.780651 9.500375 90.562599 22.639626-7.261381 40.529065-12.300141 53.66934-15.649422-5.592368-45.855374-11.740392-83.303264-18.444071-112.935142-8.945743-34.112935-23.197328-50.875714-43.059702-50.318012-17.315364-0.557702-33.252335 10.057053-48.346101 31.298843-15.092743 24.057929-27.676339 51.446719-38.020942 81.634252-32.715099-43.056632-68.495-80.505545-107.071597-112.933095-15.650445 11.455913-32.142048 21.529339-49.189306 30.187533 52.828182 38.57762 99.239212 84.700077 139.212622 138.926096-28.788673 64.856124-45.011146 163.540703-48.919153 296.03225L411.810648 548.061566l0-158.502967c0-126.629026-31.299867-228.647537-93.933369-306.642912-12.852726 16.205077-23.195282 27.677363-31.298843 34.381042 47.521317 68.49807 71.561849 158.772097 71.561849 271.15056L358.140285 583.840444l250.462379 0c-0.555655 36.623106-0.842181 72.403007-0.842181 107.34175l54.226019 0c0-34.669614 0-70.449515 0.287549-107.34175L823.284117 583.840444 823.284117 548.060543z"  horiz-adv-x="1024" />

    
    <glyph glyph-name="dingwei" unicode="&#58969;" d="M510.394944 894.976694c-0.275269 0-0.546446-0.029676-0.815575-0.029676C296.759309 894.497787 124.325052 723.539136 124.325052 512.739083c0-206.151174 368.154871-617.166201 385.251248-636.134205 0.406253-0.427742 0.815575-0.911766 0.815575-0.911766s386.069893 425.978834 386.069893 637.044948C896.464837 723.808266 723.574185 894.976694 510.394944 894.976694L510.394944 894.976694zM510.394944 257.934816c-0.275269 0-0.546446 0.035816-0.815575 0.035816-141.756561 0.449231-256.5664 114.337071-256.5664 254.768451 0 140.468219 114.811886 254.321266 256.5664 254.771521 0.272199 0 0.546446 0.029676 0.815575 0.029676 142.116765 0 257.370719-114.063849 257.370719-254.801197C767.76464 372.003781 652.510686 257.934816 510.394944 257.934816L510.394944 257.934816zM510.394944 640.142751c-0.275269 0-0.546446-0.028653-0.815575-0.028653-70.682829-0.455371-127.884622-57.30617-127.884622-127.376039 0-70.063729 57.20384-126.922714 127.884622-127.372969 0.272199 0 0.546446-0.029676 0.815575-0.029676 71.059406 0 128.670521 57.06467 128.670521 127.402645C639.065466 583.076034 581.45435 640.142751 510.394944 640.142751L510.394944 640.142751z"  horiz-adv-x="1024" />

    
    <glyph glyph-name="erji" unicode="&#58887;" d="M227.865154 413.456c1.444-5.275 2.504-12.568 2.517-21.384 0.7-18.658-3.278-44.105-1.98-72.301 1.784-27.869-2.487-54.48-9.829-74.791-6.391-20.132-15.853-33.962-2.506-32.123 12.621 1.695 26.551 15.14 32.155 34.254 6.491 19.275 4.655 44.221 6.223 72.662 1.337 28.137-4.367 53.886-13.943 72.739C236.452154 401.105 231.600154 408.253 227.865154 413.456zM222.537154 422.879c-1.978 0.202 0.883-3.232 5.328-9.423C226.258154 419.329 224.177154 422.701 222.537154 422.879zM794.858154 406.436c-3.487-4.935-8.018-11.714-11.798-19.864-8.938-17.881-14.264-42.302-13.017-68.986 1.465-26.973-0.25-50.632 5.81-68.912 5.231-18.128 18.236-30.878 30.019-32.486 12.459-1.744 3.626 11.373-2.34 30.465-6.854 19.263-10.841 44.501-9.176 70.932 1.212 26.741-2.502 50.875-1.849 68.57C792.519154 394.515 793.511154 401.432 794.858154 406.436zM959.683154 455.794c-2.484 0.251-4.962 0.286-7.427 0.129-5.195 6.505-10.922 11.825-17.104 15.748-8.469 77.332-37.675 148.446-81.977 207.676l13.566 17.696C785.690154 805.077 656.377154 875 510.688154 875c-151.011 0-284.426-75.129-364.739-189.954l16.9-13.111c-42.229-59.062-69.713-129.334-77.105-205.471-7.444-5.073-14.201-12.194-20.129-20.993-0.067-0.006-0.134-0.008-0.201-0.015C22.809154 441.439-6.000846 377.732 1.066154 303.164c7.067-74.568 47.333-131.762 89.938-127.745 1.753 0.165 3.481 0.441 5.187 0.806 13.624-11.975 28.637-18.11 43.843-16.61 46.543 4.591 77.272 78.936 68.635 166.053-7.025 70.862-37.932 128.345-74.27 144.861 7.662 63.527 31.122 122.198 66.338 172.013l21.009-16.298c62.654 92.402 168.686 153.146 288.942 153.146 124.129 0 233.098-64.721 294.854-162.173l17.205 22.442c33.455-48.272 55.938-104.685 63.865-165.655-35.701-17.377-65.876-74.256-72.807-144.164-6.431-64.863 8.966-122.636 36.46-149.819-13.239-36.581-29.868-72.59-51.689-103.782-24.415-34.811-52.389-61.293-83.275-78.733-30.734-17.61-65.986-18.668-96.646-29.112-2.533-0.878-4.979-1.704-7.346-2.487-14.656 14.653-40.552 24.396-70.074 24.396-45.721 0-82.785-23.35-82.785-52.152s37.064-52.152 82.785-52.152 82.785 23.35 82.785 52.152c0 0.486-0.037 0.966-0.059 1.449 8.081 1.366 13.634 2.076 14.046 2.223 1.034-1.564 75.132 10.071 109.881 29.658 34.922 19.342 66.163 49.432 92.493 87.529 22.23 32.485 38.472 68.502 50.493 104.726 14.478 1.218 28.573 9.149 41.231 22.221 0.046-0.005 0.091-0.012 0.137-0.017 42.576-4.308 83.234 52.61 90.812 127.129S1002.261154 451.486 959.683154 455.794zM799.831154 415.37c-1.531-0.168-3.473-3.366-4.973-8.935C799.007154 412.306 801.678154 415.562 799.831154 415.37z"  horiz-adv-x="1025" />

    
    <glyph glyph-name="duigou" unicode="&#58897;" d="M466.5519 221.632006c-5.565762-5.54018-12.891611-8.112772-20.189831-7.9296-7.299243-0.184195-14.624069 2.38942-20.189831 7.9296L297.099557 350.703663c-10.765181 10.790764-10.765181 28.250414 0 39.015595 10.790764 10.790764 28.250414 10.790764 39.015595 0l110.245893-110.219287 241.522776 241.49617c10.765181 10.790764 28.224832 10.790764 39.015595 0 10.765181-10.765181 10.765181-28.224832 0-39.015595L466.5519 221.632006zM511.999998 843.489042c-253.757424 0-459.467553-205.710129-459.467553-459.467553s205.710129-459.467553 459.467553-459.467553 459.467553 205.710129 459.467553 459.467553S765.757422 843.489042 511.999998 843.489042zM511.999998-127.957021c-282.770202 0-511.978511 229.209332-511.978511 511.978511S229.229796 896 511.999998 896s511.978511-229.209332 511.978511-511.978511S794.769176-127.957021 511.999998-127.957021z"  horiz-adv-x="1024" />

    
    <glyph glyph-name="faxian" unicode="&#58900;" d="M516.503059 827.85497c-237.083673 0-429.244204-192.179974-429.244204-429.244204 0-237.136885 192.160531-429.281043 429.244204-429.281043 237.044788 0 429.244204 192.144158 429.244204 429.281043C945.747263 635.674996 753.54887 827.85497 516.503059 827.85497M516.503059 68.385762c-182.083012 0-330.188164 148.106176-330.188164 330.225003 0 182.00831 148.105153 330.187141 330.188164 330.187141 182.081988 0 330.187141-148.178831 330.187141-330.187141C846.6902 216.492962 698.585047 68.385762 516.503059 68.385762M329.759911 211.885014l256.871345 116.690676 116.727515 256.79869L446.523241 468.637656 329.759911 211.885014zM563.23029 351.919351l-186.836269-93.353155 93.418646 186.80864L563.23029 351.919351z"  horiz-adv-x="1024" />

    
    <glyph glyph-name="jinbi" unicode="&#58923;" d="M1024 384c0-282.760533-229.239467-512-512-512-282.7776 0-512 229.239467-512 512 0 282.760533 229.2224 512 512 512C794.760533 896 1024 666.760533 1024 384M742.382933 460.9536l-0.512 0 0 126.907733c0.341333 1.672533 0.512 3.3792 0.512 5.137067s-0.187733 3.4816-0.512 5.137067l0 2.474667-0.733867 0C725.589333 651.537067 555.093333 654.250667 519.5776 654.250667c-34.6624 0-198.007467-2.577067-220.194133-50.0736l-3.072 0 0-434.295467 2.798933 0C320.341333 121.924267 484.795733 119.330133 519.5776 119.330133c34.798933 0 199.2704 2.577067 220.501333 50.568533l1.774933 0 0 5.5296c0.341333 1.672533 0.512 3.362133 0.512 5.137067l-0.512 0L741.853867 315.630933c0.341333 1.672533 0.512 3.362133 0.512 5.137067l-0.512 0L741.853867 455.816533C742.1952 457.489067 742.382933 459.195733 742.382933 460.9536zM519.5776 620.117333c105.915733 0 169.250133-16.418133 185.8048-27.118933C688.827733 582.314667 625.493333 565.896533 519.5776 565.896533c-105.898667 0-169.216 16.418133-185.7536 27.118933C350.344533 603.716267 413.661867 620.117333 519.5776 620.117333zM330.4448 463.479467c0.238933-0.546133 0.494933-1.348267 0.494933-2.525867l-0.494933 0L330.4448 463.479467zM330.4448 323.2768c0.238933-0.546133 0.494933-1.3312 0.494933-2.5088l-0.494933 0L330.4448 323.2768zM330.4448 180.565333l0 2.5088c0.238933-0.546133 0.494933-1.3312 0.494933-2.5088L330.4448 180.565333zM707.720533 182.442667C696.285867 171.9296 632.0128 153.463467 519.5776 153.463467c-116.002133 0-180.8384 19.677867-189.1328 29.986133l0 101.376c55.2448-23.722667 161.8944-25.326933 189.1328-25.326933 27.067733 0 132.608 1.5872 188.142933 24.8832L707.720533 182.442667zM707.720533 322.645333c-11.434667-10.530133-75.741867-29.013333-188.142933-29.013333-115.985067 0-180.8384 19.694933-189.1328 30.020267L330.4448 425.0112C385.6896 401.322667 492.3392 399.701333 519.5776 399.701333c27.067733 0 132.608 1.5872 188.142933 24.8832L707.720533 322.645333zM707.720533 462.830933C696.285867 452.3008 632.029867 433.834667 519.5776 433.834667c-116.053333 0-180.872533 19.694933-189.1328 30.0032L330.4448 557.090133C385.6896 533.367467 492.3392 531.7632 519.5776 531.7632c27.067733 0 132.608 1.5872 188.142933 24.8832L707.720533 462.830933z"  horiz-adv-x="1024" />

    
    <glyph glyph-name="laba" unicode="&#58946;" d="M958.464 385.6384c0-97.4848-40.5504-190.6688-111.2064-255.6928-3.6864-3.3792-8.3968-5.12-13.0048-5.12-5.3248 0-10.6496 2.2528-14.5408 6.656-7.168 8.2944-6.5536 20.992 1.536 28.3648 62.3616 57.4464 98.2016 139.776 98.2016 225.792 0 84.3776-34.6112 165.5808-95.0272 222.8224-7.8848 7.4752-8.3968 20.1728-1.1264 28.3648 7.2704 8.192 19.6608 8.704 27.5456 1.1264C919.2448 573.1328 958.464 481.1776 958.464 385.6384L958.464 385.6384zM807.5264 385.536c0-61.44-26.5216-119.0912-72.704-158.208-3.584-3.072-7.9872-4.608-12.3904-4.608-5.632 0-11.264 2.4576-15.0528 7.2704-6.8608 8.6016-5.632 21.1968 2.6624 28.2624 37.1712 31.4368 58.368 77.824 58.368 127.2832 0 47.8208-20.1728 93.184-55.3984 124.6208-8.192 7.2704-9.0112 19.968-1.9456 28.2624 7.0656 8.3968 19.3536 9.3184 27.5456 2.048C782.4384 501.5552 807.5264 445.0304 807.5264 385.536L807.5264 385.536zM579.9936 75.4688l-319.488 133.3248L260.5056 548.864l319.488 142.848L579.9936 75.4688 579.9936 75.4688zM104.5504 235.4176 104.5504 521.9328c0 11.0592 8.8064 20.0704 19.5584 20.0704l97.28 0 0-326.656-97.28 0C113.3568 215.3472 104.5504 224.3584 104.5504 235.4176L104.5504 235.4176zM610.2016 739.1232c-5.5296 3.6864-12.4928 4.3008-18.5344 1.6384L236.8512 582.144 124.1088 582.144c-32.256 0-58.5728-27.0336-58.5728-60.2112l0-286.5152c0-33.1776 26.3168-60.2112 58.5728-60.2112l113.0496 0 355.0208-148.0704c2.3552-1.024 4.8128-1.4336 7.3728-1.4336 3.7888 0 7.68 1.1264 10.9568 3.3792 5.4272 3.6864 8.6016 9.9328 8.6016 16.6912L619.1104 722.3296C619.008 729.088 615.7312 735.4368 610.2016 739.1232L610.2016 739.1232zM610.2016 739.1232"  horiz-adv-x="1024" />

    
    <glyph glyph-name="ai65" unicode="&#59063;" d="M883.075899 467.771939l-267.119757 22.906709-104.369046 246.226914-104.363929-246.226914-267.122827-22.906709 202.63714-175.596274-60.72606-261.081227 229.575676 138.430816 229.577722-138.374534-60.780295 261.134439L883.075899 467.771939zM511.587096 239.284037 511.587096 584.816678l63.559595-149.966547 162.695452-14.038738-123.465986-106.871029 37.002752-158.998247L511.587096 239.284037z"  horiz-adv-x="1024" />

    
    <glyph glyph-name="zhankai" unicode="&#58908;" d="M829.16557 579.326641c15.177678 14.901385 39.73805 14.901385 54.867632 0 15.153118-14.876826 15.153118-39.013549 0-53.91391L539.334555 188.686662c-15.153118-14.877849-39.714514-14.877849-54.843072 0L139.817396 525.41273c-7.588839 7.461949-11.370978 17.226337-11.370978 26.969235 0 9.764388 3.78214 19.529799 11.395538 26.944676 15.153118 14.901385 39.690978 14.901385 54.844096 0L511.913019 269.569808 829.16557 579.326641 829.16557 579.326641z"  horiz-adv-x="1024" />

    
    <glyph glyph-name="line-star" unicode="&#58983;" d="M773.1-64.8c-10.4 0-21.6 3.2-33.4 9.5l-170.5 90.8c-14.7 7.8-35.6 12.3-57.2 12.3s-42.5-4.5-57.2-12.3l-170.5-90.8c-11.8-6.3-23-9.5-33.4-9.5-12.7 0-23.9 5-31.5 14-6.9 8.1-14.1 23.4-9.7 50l32.6 192.4c5.9 35.1-10.3 85.8-35.5 110.6l-137.8 136.1c-24.7 24.4-22.7 45.1-19.4 55.3 3.3 10.1 14 27.9 47.9 32.9l190.7 28.1c34.7 5.1 77.1 36.4 92.7 68.3l85.3 175c15.2 31.2 35.4 35.9 46 35.9 10.7 0 30.8-4.7 46-35.9l85.3-175c15.5-31.9 58-63.1 92.7-68.3l190.6-28.1c33.9-5 44.5-22.7 47.9-32.9 3.3-10.2 5.3-30.9-19.4-55.3l-138-136.2c-25.2-24.8-41.4-75.5-35.5-110.6l32.6-192.4c4.5-26.5-2.8-41.8-9.7-50-7.7-9-18.9-13.9-31.6-13.9zM512 78.5c26.9 0 52.3-5.7 71.6-16l170.5-90.8c9.1-4.8 15.3-5.8 18.9-5.8 4.8 0 6.9 1.8 8 3.1 3.7 4.4 4.7 13.7 2.8 25l-32.6 192.4c-7.7 45.2 11.7 105.6 44.2 137.6l138 136.2c9.1 9 13.7 18.2 11.8 23.9-1.8 5.6-10.7 10.2-23.1 12l-190.7 28.1c-44.9 6.6-95.7 44-115.8 85.2l-85.3 175c-6.6 13.7-13.8 18.6-18.3 18.6s-11.7-4.9-18.4-18.6l-85.3-175c-20.1-41.2-70.9-78.6-115.8-85.2l-190.7-28.1c-12.4-1.8-21.3-6.5-23.1-12-1.9-5.7 2.7-14.8 11.8-23.9l138-136.2c32.4-32 51.8-92.4 44.2-137.6l-32.6-192.4c-1.9-11.3-0.9-20.7 2.8-25 1.1-1.3 3.1-3.1 8-3.1 3.6 0 9.9 1 18.9 5.8l170.5 90.8c19.4 10.4 44.8 16 71.7 16z"  horiz-adv-x="1024" />

    
    <glyph glyph-name="cart-on" unicode="&#58888;" d="M840.205128-128c-49.887179 0-91.897436 42.010256-91.897436 91.897436S790.317949 55.794872 840.205128 55.794872s91.897436-42.010256 91.897436-91.897436S890.092308-128 840.205128-128z m0 131.282051c-21.005128 0-39.384615-18.379487-39.384615-39.384615S819.2-75.487179 840.205128-75.487179s39.384615 18.379487 39.384616 39.384615S861.210256 3.282051 840.205128 3.282051zM446.358974-128c-49.887179 0-91.897436 42.010256-91.897436 91.897436S396.471795 55.794872 446.358974 55.794872s91.897436-42.010256 91.897436-91.897436S496.246154-128 446.358974-128z m0 131.282051c-21.005128 0-39.384615-18.379487-39.384615-39.384615S425.353846-75.487179 446.358974-75.487179s39.384615 18.379487 39.384616 39.384615S467.364103 3.282051 446.358974 3.282051zM1150.030769 620.307692c-2.625641 7.876923-13.128205 13.128205-21.005128 13.128205H228.430769L128.65641 880.246154C126.030769 890.748718 115.528205 896 105.025641 896H26.25641C10.502564 896 0 885.497436 0 869.74359s10.502564-26.25641 26.25641-26.256411h60.389744L183.794872 596.676923l183.794872-472.615385c5.251282-10.502564 13.128205-15.753846 23.630769-15.753846h525.128205c10.502564 0 18.379487 5.251282 23.630769 15.753846l210.051282 472.615385c5.251282 7.876923 5.251282 18.379487 0 23.630769zM840.205128 239.589744H472.615385c-15.753846 0-26.25641 10.502564-26.256411 26.25641s10.502564 26.25641 26.256411 26.25641h367.589743c15.753846 0 26.25641-10.502564 26.25641-26.25641s-10.502564-26.25641-26.25641-26.25641z m105.025641 157.538461H420.102564c-15.753846 0-26.25641 10.502564-26.25641 26.25641s10.502564 26.25641 26.25641 26.256411h525.128205c15.753846 0 26.25641-10.502564 26.25641-26.256411s-10.502564-26.25641-26.25641-26.25641z"  horiz-adv-x="1155" />

    
    <glyph glyph-name="waimai" unicode="&#58994;" d="M213.540979 687.983339l156.759253 0c19.780509 0 35.815717 16.035208 35.815717 35.815717s-16.035208 35.815717-35.815717 35.815717L213.540979 759.614773c-19.780509 0-35.815717-16.035208-35.815717-35.815717S193.76047 687.983339 213.540979 687.983339zM215.176223 207.452052c-19.120476 0-34.675754-15.555278-34.675754-34.675754 0-19.1215 15.555278-34.676777 34.675754-34.676777s34.675754 15.555278 34.675754 34.676777C249.853 191.895751 234.296699 207.452052 215.176223 207.452052zM215.176223 156.286742c-9.092076 0-16.489556 7.397481-16.489556 16.489556 0 9.092076 7.397481 16.488533 16.489556 16.488533s16.489556-7.397481 16.489556-16.488533C231.665779 163.683199 224.269321 156.286742 215.176223 156.286742zM805.513382 207.452052c-19.120476 0-34.675754-15.555278-34.675754-34.675754 0-19.1215 15.555278-34.676777 34.675754-34.676777 19.1215 0 34.676777 15.555278 34.676777 34.676777C840.190159 191.895751 824.634882 207.452052 805.513382 207.452052zM805.513382 156.286742c-9.092076 0-16.488533 7.397481-16.488533 16.489556 0 9.092076 7.397481 16.488533 16.488533 16.488533 9.093099 0 16.489556-7.397481 16.489556-16.488533C822.002938 163.683199 814.606481 156.286742 805.513382 156.286742zM920.649656 287.912571L920.649656 287.912571l9.616008 0.001023c19.778462 0 35.815717 16.036231 35.815717 35.815717 0 19.780509-16.035208 35.815717-35.815717 35.815717l-570.57507 0.001023 0 68.562539L359.690594 570.16191l0 64.611553c0 19.780509-16.035208 35.815717-35.815717 35.815717l-99.05604 0c-13.815657 0-26.400277-7.946996-32.338522-20.422122L88.81428 432.394197c-1.650593-3.489474-36.890188-79.988776 4.362354-151.908782-25.391297-28.725228-40.827871-66.446341-40.827871-107.709117 0-89.782839 73.043596-162.827459 162.827459-162.827459 85.565794 0 155.927305 66.342987 162.348552 150.290935l265.638009 0c6.42227-83.947947 76.784804-150.290935 162.349575-150.290935 89.782839 0 162.827459 73.04462 162.827459 162.827459C968.340841 216.269881 951.403077 257.15915 920.649656 287.912571zM145.268036 367.348762c1.685385 19.116383 7.875365 33.443693 8.376785 34.577516l93.792153 197.030445 40.623209 0 0-28.795836 0-142.05332 0-69.586868c0-38.932708 31.67542-70.607104 70.608128-70.607104l331.820338-0.001023c-20.774139-20.75265-35.972283-47.078225-43.161009-76.509535L373.41006 211.403037c-6.956436 28.724205-21.667485 55.078433-43.097564 76.508511-30.754444 30.754444-71.643714 47.690162-115.136274 47.690162-22.402219 0-43.760666-4.548596-63.204507-12.768815C146.077471 336.041732 143.821081 350.94107 145.268036 367.348762zM215.176223 81.580273c-50.285267 0-91.196025 40.910759-91.196025 91.196025 0 50.285267 40.910759 91.195002 91.196025 91.195002 24.358781 0 47.260373-9.486048 64.484663-26.710338s26.710338-40.125883 26.710338-64.485687C306.372248 122.490008 265.462512 81.580273 215.176223 81.580273zM805.513382 81.580273c-50.28629 0-91.196025 40.910759-91.196025 91.196025 0 50.285267 40.910759 91.195002 91.197048 91.195002 24.358781 0 47.260373-9.486048 64.484663-26.710338 17.225313-17.22429 26.711362-40.125883 26.711362-64.485687C896.709407 122.490008 855.799672 81.580273 805.513382 81.580273zM599.122755 413.336142c12.875239-10.508331 29.561269-16.295128 46.982034-16.295128l241.436818 0c17.420765 0 34.105772 5.786797 46.981011 16.295128 14.775518 12.059664 23.25054 29.411867 23.25054 47.609321L957.773158 585.326285c0 18.197454-8.473999 35.550681-23.251563 47.609321-12.874215 10.508331-29.560246 16.294105-46.979988 16.294105L646.104789 649.22971c-17.420765 0-34.106796-5.786797-46.982034-16.294105-14.775518-12.05864-23.25054-29.411867-23.25054-47.609321l0-124.380822C575.872215 442.748009 584.346213 425.394782 599.122755 413.336142zM647.503649 577.598276l238.637052 0 0-108.925828L647.503649 468.672448 647.503649 577.598276z"  horiz-adv-x="1024" />

    
    <glyph glyph-name="sousuo" unicode="&#58960;" d="M940.544 36.352l-266.24 266.24c38.4 54.784 61.44 121.344 61.44 193.536 0 185.344-150.528 335.872-335.872 335.872-185.344 0-335.872-150.528-335.872-335.872 0-185.344 150.528-335.872 335.872-335.872 72.192 0 139.264 23.04 194.048 61.952l265.728-265.728c24.576-24.576 62.464-26.112 84.48-4.096 22.528 21.504 20.48 59.392-3.584 83.968zM176.128 495.616c0 123.392 100.352 223.744 223.744 223.744s223.744-100.352 223.744-223.744-100.352-223.744-223.744-223.744-223.744 100.352-223.744 223.744z"  horiz-adv-x="1024" />

    
    <glyph glyph-name="laohu" unicode="&#58889;" d="M976.941757-78.250648a40.448277 40.448277 0 0 0-40.449277-40.448278H494.363547a40.448277 40.448277 0 0 0-40.448277 40.448278 40.448277 40.448277 0 0 0 40.448277 40.624222H936.756397a40.448277 40.448277 0 0 0 40.186359-40.624222zM936.756397-37.626426a40.448277 40.448277 0 0 0 40.18536-40.624222 40.448277 40.448277 0 0 0-40.449277-40.448278m-86.161899 81.0725h29.21781v-80.809582h-29.21781z m-70.192921 0h29.21781v-80.809582h-29.21781z m-70.192922 0h29.21781v-80.809582h-29.21781zM713.716552 200.766589c0-180.483231 0-328.766589-326.747225-326.748224h-5.967123c-326.837196-22.462934-326.837196 146.263994-326.837196 326.748224v5.264345a326.748224 326.748224 0 0 0 326.661252 326.749224h5.967123A326.748224 326.748224 0 0 0 713.716552 206.030934zM495.856078 791.967632a103.710379 103.710379 0 1 1 207.419758 0 103.710379 103.710379 0 1 1-207.419758 0zM539.814251 791.967632a59.751206 59.751206 0 1 1 119.503412 0 59.751206 59.751206 0 1 1-119.503412 0zM46.883298 791.967632a103.710379 103.710379 0 1 1 207.420758 0 103.710379 103.710379 0 1 1-207.420758 0zM90.842471 791.967632a59.751206 59.751206 0 1 1 119.502412 0 59.751206 59.751206 0 1 1-119.502412 0zM56.359318 578.317834c0 163.900447 146.615883 296.740663 327.537976 296.740663S711.348297 742.218281 711.348297 578.317834s-81.160472-296.828635-327.451003-296.828635c-263.047261 0-327.537976 132.928189-327.537976 296.828635zM222.366102 647.983921a35.710767 35.710767 0 1 1 71.421535 0 35.710767 35.710767 0 1 1-71.421535 0zM259.5684 654.827769a13.51175 13.51175 0 1 0 13.51175-13.599723 13.51175 13.51175 0 0 0-13.51175 13.599723zM487.783617 647.983921a35.710767 35.710767 0 1 1 71.421535 0 35.710767 35.710767 0 1 1-71.421535 0zM524.985915 654.827769a13.51175 13.51175 0 1 0 13.248833-13.599723 13.51175 13.51175 0 0 0-13.248833 13.599723zM65.396475 647.983921l102.65771-54.749779-110.642198-49.047572s-5.439289 73.175983 7.984488 103.797351z m-5.439289-132.138437l162.320943 8.77424L102.247884 391.166701s-33.078595 42.641587-42.290698 124.680783z m642.265981 132.138437l-102.569738-54.837751 110.730171-48.9596s5.264344 73.175983-8.160433 103.797351z m5.440289-132.138437l-162.321943 8.77424 116.433377-129.067403s36.675464 38.254967 45.888566 120.293163zM339.764175 683.694689h110.729171l58.171703-231.549169H286.593899L339.764175 683.694689zM508.666049 452.057548c0-50.012269-49.749352-90.548519-111.081061-90.548519S286.5929 402.133251 286.5929 452.057548M328.444736 294.387142a165.217032 165.217032 0 0 0-35.885713 4.649537 4.38662 4.38662 0 1 0 1.929393 8.774241c35.096961-7.808544 60.630929-4.562565 76.33599 9.477019 20.09268 17.547481 17.021646 48.432766 16.934673 48.783655a4.38662 4.38662 0 0 0 3.859786 4.825482 4.298648 4.298648 0 0 0 4.825482-3.860785c0-1.403559 3.685841-35.095961-19.74179-56.154337a70.192921 70.192921 0 0 0-48.257821-16.494812zM456.810359 297.457176a70.192921 70.192921 0 0 0-48.60871 15.882005c-23.426631 21.057377-19.916735 54.749779-19.741791 56.154337a4.298648 4.298648 0 0 0 4.826482 3.860786 4.38662 4.38662 0 0 0 3.859786-4.826482s-3.159006-30.797313 16.934674-48.784656c15.70506-14.125557 41.413974-17.547481 76.334989-9.475019a4.38662 4.38662 0 1 0 1.929393-8.77424 166.181729 166.181729 0 0 0-35.534823-4.036731z"  horiz-adv-x="1024" />

    
    <glyph glyph-name="fenxiang" unicode="&#58918;" d="M624.028677 857.875406c-244.830824 0-443.309234-198.47841-443.309235-443.309234s198.47841-443.309234 443.309235-443.309234 443.309234 198.47841 443.309234 443.309234S868.886099 857.875406 624.028677 857.875406z m192.396207-708.736205H408.731114c-44.330923 0-50.617048 51.317477-50.617048 51.317477v390.112126c0 40.78445 50.617048 50.617048 50.617048 50.617048h220.697069v-50.617048s-147.621975 4.920732-186.978969 0c-38.665431-4.920732-33.744699-33.691502-33.744699-33.691502s0.700429-284.69319 0.700429-323.358622 33.744699-33.744699 33.744699-33.744698c199.631014 0.709295 341.631828 1.409723 356.420624 0 1.400857 0 9.841465-1.400857 14.052903 3.546473 3.546474 3.546474 3.546474 9.141036 2.819447 13.352475v135.652625h50.581583s-4.920732-103.335382 0-152.498376c5.621161-49.295987-50.608182-50.70571-50.608182-50.705711z m80.957133 384.464366a0.177324 0.177324 0 0 0-0.124127 0.044331l-7.030885-7.030884-120.198865-122.353349c-7.030884-7.030884-16.845751-7.030884-23.938699 0l-11.951617 11.951617c-7.030884 7.030884-7.030884 16.845751 0 23.938699l91.410364 91.366033A259.007853 259.007853 0 0 1 530.313104 344.523313a192.848383 192.848383 0 0 1-7.030884-33.691502l-50.608182 13.299277c2.110152 11.951617 3.546474 21.793082 7.030884 33.691502 39.356994 147.692904 178.547227 241.160223 324.050184 227.860946l-70.99154 70.929478c-7.030884 7.030884-7.030884 16.845751 0 23.938698L744.759513 692.494463c7.022018 7.030884 16.845751 7.030884 23.938699 0l120.207732-121.608589 7.030884-7.022018 7.022019-7.030885a15.409429 15.409429 0 0 0 4.920732-11.951617c-0.088662-3.378016-9.167635-11.295519-10.506429-11.295519z"  horiz-adv-x="1147" />

    
    <glyph glyph-name="zhekoushuoming" unicode="&#58899;" d="M629.5 570.9c-38.2 0.1-69.4-30.9-69.5-69.2-0.1-37.8 30.8-69 68.7-69.2 38.7-0.2 69.7 30.5 69.8 69 0 38.2-30.9 69.3-69 69.4zM606 832.7H420c-196.3 0-355.5-159.1-355.5-355.5v-186c0-196.3 159.1-355.5 355.5-355.5h186c196.3 0 355.5 159.1 355.5 355.5v186C961.4 673.5 802.3 832.7 606 832.7z m161.7-322.5c0-25-0.1-50 0-75 0.1-14.1-4.7-25.9-13-37.5-7.9-11-17.6-20.2-27-29.6-74.3-74.3-148.7-148.8-223.1-223.2-17.2-17.2-42.9-21.7-64.4-10.9-5.1 2.6-10.1 6.1-14.2 10.2-51.5 51.2-102.9 102.6-154.3 154.1-21.2 21.2-21.4 56.4-0.1 77.5 80.3 80.6 160.7 161 241.3 241.2 9.8 9.8 21.1 18.4 35.4 21.5 3.9 0.9 8 1.4 12.1 1.4 51.7 0.1 103.3 0.1 155 0.1 29.2 0 52-22.4 52.3-51.5 0.2-26.1 0-52.2 0-78.3z"  horiz-adv-x="1024" />

    
    <glyph glyph-name="zan" unicode="&#58955;" d="M711.215 896H253.207c-40.96 0-76.334-26.065-91.229-61.44L9.31 471.505c-5.585-11.17-5.585-26.065-5.585-35.374v-102.4H0c0-55.855 46.545-102.4 102.4-102.4h320.233l-50.27-236.451v-14.895c0-20.48 9.31-40.96 20.48-55.854l55.855-50.27 335.127 336.99c20.48 14.894 29.79 40.96 29.79 70.749v512C811.753 849.455 767.069 896 711.215 896z m202.938 0v-614.4h202.938V896H914.153z"  horiz-adv-x="1118" />

    
    <glyph glyph-name="dianhua" unicode="&#59070;" d="M1014.73024-14.9504l-48.128-47.9232c-19.6096-19.5584-43.9808-35.2256-72.6528-46.592-31.5392-12.544-66.9184-18.5344-104.704-18.5344-145.2544-0.1024-374.6816 135.3216-526.7968 286.976C70.80704 350.1056-44.08576 613.1712 16.58624 765.3376c8.9088 22.272 21.1968 42.0864 35.84 59.4944V824.832l3.072 5.0688a32.9728 32.9728 0 0 0 4.864 6.144l50.432 50.2784c12.8 12.8 33.5872 12.8 46.336 0l22.7328-22.6304 197.9392-197.4272c12.8-12.6976 12.8-33.3824 0-46.1312L324.81024 567.296l-35.9936-35.84s-18.8416-120.3712 115.2-254.0032c134.0416-133.632 254.1568-115.4048 254.1568-115.4048l89.4464 89.1904a32.768 32.768 0 0 0 46.336 0l220.672-219.9552c12.8-12.8 12.8-33.4848 0.0512-46.2336"  horiz-adv-x="1024" />

    
    <glyph glyph-name="biao" unicode="&#59520;" d="M733.006003 348.843018H520.784125V665.085189c0 41.30092-64.767352 41.30092-64.767352 0v-352.081812c0-12.543875 5.034616-21.759782 15.103849-27.647724 6.229271-5.119949 14.335857-8.106586 22.869105-8.106585H733.006003c18.943811 0 35.754309 14.506522 35.754309 35.839641a36.692966 36.692966 0 0 1-35.754309 35.754309z m193.192735-136.361303a456.443436 456.443436 0 0 0-242.344243-242.514908c-108.542915-45.311547-232.701673-44.03156-343.975227 0C118.35615 57.773929 6.741266 334.336497 97.535025 555.518285 188.840778 778.065393 463.952694 894.117565 683.854495 798.033193c107.433592-46.932864 196.776699-132.265344 242.344243-242.514908a451.664817 451.664817 0 0 0 0-343.03657z m59.220741 367.612324A512.67754 512.67754 0 0 1 708.430249 857.253934a517.968154 517.968154 0 0 1-393.126735 0A513.957527 513.957527 0 0 1 38.399616 580.094039a520.784125 520.784125 0 0 1 0-392.188078 513.01887 513.01887 0 0 1 276.98923-277.159895 517.968154 517.968154 0 0 1 393.126736 0 511.824215 511.824215 0 0 1 276.98923 277.159895 517.712156 517.712156 0 0 1 0 392.188078z"  horiz-adv-x="1024" />

    
    <glyph glyph-name="dianzan" unicode="&#59075;" d="M807.87456 524.97408h-204.8c3.2 12.8 3.2 22.4 6.4 35.2 0 9.6 3.2 16 3.2 22.4 16 83.2-12.8 131.2-41.6 160-32 32-73.6 44.8-96 38.4-44.8-9.6-67.2-28.8-92.8-83.2-12.8-28.8-38.4-96-67.2-169.6h-166.4v-480h595.2c54.4 0 99.2 41.6 99.2 92.8l41.6 313.6c3.2 48-19.2 70.4-76.8 70.4z m-624-32h128v-416h-128v416z m630.4-352c0-35.2-28.8-64-67.2-64H340.67456V508.97408c22.4 60.8 51.2 144 67.2 176 22.4 48 38.4 60.8 70.4 64 12.8 3.2 41.6-6.4 67.2-28.8 22.4-22.4 44.8-60.8 32-131.2 0-6.4-3.2-12.8-3.2-22.4-3.2-16-6.4-38.4-9.6-51.2l-6.4-19.2h249.6c41.6 0 48-9.6 48-38.4l-41.6-316.8z"  horiz-adv-x="1024" />

    
    <glyph glyph-name="hongbao" unicode="&#59128;" d="M0 384a512 512 0 1 1 1024 0A512 512 0 1 1 0 384zM681.3 101.9H342.7c-41.5 0-75.2 33.7-75.2 75.2V553.3L493.2 478h37.6l225.7 75.2v-376.1c0-41.5-33.7-75.2-75.2-75.2zM531.7 291.1l54.6 0.1c13.7-0.1 18.5 7 18.8 15.5 0.2 7.4-6.8 21.4-19.1 21.7h-54.6v13.2s41.4 42.3 52.2 52.1c10.7 9.8 13.4 17.5 6.8 25.4-6.7 8.1-18.6 7.6-27.2 0.4-8.8-7.3-51.1-46.6-51.1-46.6s-36.3 37.5-44.2 45.1c-7.1 6.8-22 13.4-30.1 4.3-8.4-9.5-1.9-21.5 3.4-26.7 5.3-5.2 50.7-53.2 50.7-53.2l-0.1-14.5h-57c-8.4 0-15.9-15-15.6-22.9 0.3-7.9 6.6-14.1 15.6-14.1 8.9 0 56.8 0.3 56.8 0.3l-0.1-40.3h-59c-8.4 0-15.5-8.5-15.8-16.4-0.3-8 6.3-18.8 15.8-18.8h58.9s-0.1-13.8 0.3-19.5c0.8-12.8 9.2-18.1 20.5-18.3 11.3-0.2 19.2 9.2 19.2 17.6 0 7-0.2 20.2-0.2 20.2s49 0.1 58.2 0c9.3-0.1 16.2 9.3 15.8 18.8-0.3 9.5-6.1 16.8-20.1 16.8h-53.6l0.2 39.8z m-0.9 224.6h-37.6l-225.7 75.2c0 41.6 33.7 75.2 75.2 75.2h338.5c41.5 0 75.2-33.7 75.2-75.2l-225.6-75.2z"  horiz-adv-x="1024" />

    
    <glyph glyph-name="huo" unicode="&#58886;" d="M739.488 704.981c24.059-52.988 28.493-142.028-19.989-185.204-82.353 312.114-286.31 376.223-286.31 376.223 24.059-161.217-87.732-337.045-194.944-468.825-3.998 64.109-7.995 109.029-41.867 170.085-7.269-116.298-97.036-211.88-121.095-328.541-32.491-158.455 24.495-274.244 242.19-396.72-68.543 142.028-32.055 223.509 20.497 300.048 45.211 65.209 74.988 144.293 82.407 229.778s35.199-121.331 17.391-213.061c79.955 89.040 94.492 230.196 82.789 284.493 180.77-125.965 257.817-398.901 153.585-601.040 553.358 312.332 137.522 779.775 65.345 832.763z"  horiz-adv-x="1024" />

    
    <glyph glyph-name="anquan" unicode="&#58930;" d="M691.7 539.7c-11.8 0-22.5-4.6-30.7-12.3l-192.5-193.5-99.8 99.3c-8.7 7.7-19.5 12.3-31.2 12.3s-22.5-4.6-30.7-12.8c-16.4-17.4-16.4-45.6 0.5-62 78.8-77.3 125.4-121.9 139.3-133.6l-0.5-0.5 4.1-2c6.1-3.6 13.3-5.1 20-5.1 10.8 0 21.5 4.6 29.7 12.8l223.2 223.2c16.4 17.4 16.4 45.6-0.5 62-8.3 7.6-19.6 12.2-30.9 12.2zM879.6 756.3l-334.8 116.7c-21.5 6.7-44 6.7-66 0L144.9 756.3c-34.8-11.3-57.9-43.5-57.9-79.9v-255c0-151 72.2-294.9 193-384.5l183.3-130c14.3-11.3 30.7-16.9 49.2-16.9 17.9 0 34.8 5.6 48.6 16.4l183.8 130c120.3 89.1 192 232.4 192 383.5v256c0.1 37.3-22.9 69.1-57.3 80.4z m-29.1-126v-204.3c0-120.8-57.3-235.5-153.1-306.7l-153.6-109.6c-8.7-6.7-19.5-9.7-30.2-9.7s-21.5 3.6-30.2 9.7L329.8 119.3c-96.3 71.2-153.6 185.9-153.6 306.7v214c0 22 14.3 42 35.3 49.2l279.6 97.8c6.7 2 13.8 3.1 21.5 3.1s14.8-1 22-3.1l280.1-97.8c21-6.7 34.8-26.1 34.8-49.2v-10.2h1v0.5z"  horiz-adv-x="1024" />

    
    <glyph glyph-name="koubei" unicode="&#59146;" d="M881.379556 753.436444H129.080889C89.429333 753.436444 57.258667 721.777778 57.258667 682.723556v-184.519112c0-193.28 124.16-357.148444 288.597333-422.058666 3.043556-1.137778 5.432889-3.185778 6.826667-5.034667 2.986667-4.380444 2.588444-8.448 2.588444-8.448v-46.848s-0.227556-10.097778 8.618667-18.887111c5.262222-5.290667 11.093333-7.395556 17.351111-7.992889 19.370667-2.048 63.914667-4.778667 119.267555 2.503111a527.160889 527.160889 0 0 1 273.351112 122.339556c128.284444 110.535111 179.399111 258.503111 179.399111 386.474666V682.723556c0 39.054222-32.199111 70.712889-71.879111 70.712888z m-116.138667-418.161777c-58.766222-85.048889-156.103111-135.68-260.408889-135.68-173.511111 0-314.737778 138.951111-314.737778 309.76 0 21.333333 17.578667 38.627556 39.196445 38.627555 21.731556 0 39.253333-17.294222 39.253333-38.627555 0-128.227556 105.984-232.533333 236.288-232.533334a237.112889 237.112889 0 0 1 195.498667 101.944889c12.231111 17.635556 36.636444 22.186667 54.556444 10.183111 17.863111-12.032 22.471111-35.953778 10.353778-53.674666z m15.047111 128.711111a46.165333 46.165333 0 0 0-46.506667 45.795555c0 25.258667 20.821333 45.710222 46.506667 45.710223 25.628444 0 46.449778-20.451556 46.449778-45.681778 0-25.315556-20.821333-45.795556-46.449778-45.795556z"  horiz-adv-x="1024" />

    
    <glyph glyph-name="home" unicode="&#58881;" d="M927.744-70.65599999999995H135.168c-16.384 0-32.768 8.192-43.008 20.48-10.24 14.336-14.336 30.72-10.24 47.104 40.96 208.896 210.944 364.544 415.744 380.928 8.192 2.048 14.336 2.048 24.576 2.048v-20.48c-8.192 0-14.336 0-22.528-2.048-196.608-14.336-360.448-163.84-399.36-364.544-2.048-10.24 0-22.528 8.192-30.72 6.144-8.192 16.384-12.288 26.624-12.288h792.576c10.24 0 20.48 4.096 26.624 12.288 6.144 8.192 10.24 18.432 8.192 30.72-24.576 131.072-104.448 243.712-217.088 307.2-12.288 8.192-26.624 14.336-38.912 20.48l8.192 18.432c14.336-6.144 28.672-14.336 40.96-20.48 118.784-67.584 200.704-184.32 227.328-321.536 4.096-16.384 0-32.768-12.288-47.104-10.24-12.288-26.624-20.48-43.008-20.48z m-399.36 430.08h-4.096v20.48h6.144l-2.048-20.48zM536.576 359.424c-129.024 0-235.52 106.496-235.52 235.52S407.552 830.4639999999999 536.576 830.4639999999999s235.52-106.496 235.52-235.52-106.496-235.52-235.52-235.52z m0 450.56c-118.784 0-215.04-96.256-215.04-215.04s96.256-215.04 215.04-215.04 215.04 96.256 215.04 215.04S655.36 809.984 536.576 809.984z"  horiz-adv-x="1024" />

    
    <glyph glyph-name="pin" unicode="&#58999;" d="M511.998977 889.424248C232.912212 889.424248 6.574729 663.085742 6.574729 384c0-279.084718 226.337483-505.424248 505.424248-505.424248 279.087788 0 505.425271 226.339529 505.425271 505.424248 0 279.085742-226.336459 505.424248-505.425271 505.424248z m0-957.533326c-249.653468 0-452.110101 202.308254-452.110101 452.109078 0 249.795707 202.315418 452.110101 452.110101 452.110101 249.801847 0 452.111124-202.315418 452.111124-452.110101 0.001023-249.800823-202.45254-452.109078-452.111124-452.109078zM319.052932 365.707415c-18.243466-8.213039-36.390742-15.473382-54.251493-21.776936-7.164152-2.673894-11.748555-6.971771-14.040756-12.893632-1.432626-6.017028-1.146101-12.512963 1.1461-19.581948 2.57975-6.017028 7.067962-10.410073 13.467706-13.466683 5.922884-2.196011 12.225415-2.005676 19.007875 0.574074 11.557197 4.870928 23.113371 10.124571 34.670568 15.66474v-128.179079c0-7.067962-1.719151-12.130247-5.061262-15.090666-2.197034-2.197034-4.871951-3.344158-7.833394-3.344158a36.675221 36.675221 0 0 0-11.174481 0.57305c-2.57975 0.381692-8.022705 1.338482-16.23779 2.771108-7.067962 2.291178-13.753208 1.910509-20.152952-1.146101-4.870928-2.57975-8.404397-7.260343-10.601431-13.944565-1.528816-6.019075-0.954743-11.940936 1.623983-17.957965 3.438302-5.539145 8.787113-9.264996 16.237791-11.175505 11.556174-3.342111 20.534644-5.15643 26.934388-5.539145 5.921861-0.381692 15.473382-0.574074 28.463205-0.574074 7.163129 0.382716 13.658041 2.578726 19.579902 6.68627 8.214062 4.871951 14.422449 11.556174 18.528968 20.152952 3.724827 7.066938 5.731527 16.047456 6.113219 26.840244v163.421674c1.527793 1.147124 3.247967 2.10289 5.062286 2.866275 19.388544 10.41212 36.199384 21.012527 50.335308 31.901507 5.635336 3.724827 8.787113 8.690922 9.550498 15.091689 0.382716 5.921861-1.528816 11.747532-5.634313 17.287701-3.72585 5.635336-8.501611 8.787113-14.518639 9.551521-5.921861 0.382716-11.93889-1.527793-17.860751-5.63636-7.163129-4.77576-16.046432-10.792789-26.934389-17.859727V496.655554h41.453028c7.067962 0 12.703298 2.482536 16.809818 7.354487 3.724827 4.393045 5.731527 9.838046 6.113219 16.142623 0 7.163129-2.005676 12.703298-6.113219 16.809818-3.724827 3.72585-9.360163 5.825671-16.809818 6.208386H365.473078v84.432825c0 8.214062-2.387369 14.805164-7.259319 19.677116-4.489235 3.72585-9.838046 5.730503-16.236767 6.113219-7.068985-0.382716-12.51194-2.57975-16.237791-6.686269-4.489235-4.871951-6.686269-11.270672-6.686269-19.103042v-84.432826h-41.930911c-7.163129 0-12.893632-2.293225-17.383891-6.781437-3.724827-4.489235-5.825671-9.837023-6.208386-16.236767 0-7.068985 2.101867-12.60813 6.208386-16.715673 3.72585-4.487189 9.551521-6.780413 17.383891-6.780413h41.930911v-130.950186zM522.781533 496.655554h-48.711325c-7.83237 0-13.658041 2.293225-17.383891 6.780414-4.10652 4.108566-6.113219 9.647712-6.113219 16.715673 0.382716 6.399744 2.387369 11.747532 6.113219 16.236767 4.489235 4.489235 10.315929 6.781437 17.383891 6.781437h54.25047c-3.724827 3.72585-6.30253 8.404397-7.830323 13.944565-7.83237 25.788288-15.665763 45.560571-23.49711 59.313779-3.343135 7.066938-4.297877 13.658041-2.770085 19.579901 1.527793 5.636359 5.25262 10.123548 11.174482 13.466683 6.017028 2.962466 11.939913 3.72585 17.956941 2.197034 5.921861-1.432626 10.792789-5.730503 14.517616-12.799488 10.411096-18.338634 19.772283-41.452005 27.985322-69.437327 1.910509-7.83237 1.528816-14.135924-1.145077-19.007874-2.197034-2.673894-4.10652-5.061262-5.539146-7.258297h60.363689c17.19151 36.486933 28.557349 66.573098 34.193708 90.069185 2.196011 7.83237 5.731527 13.658041 10.601431 17.383891 5.25262 2.960419 11.175505 3.723804 17.955918 2.196011 6.686269-1.813295 11.748555-5.25262 15.090666-10.028381 2.57975-6.017028 3.151777-12.512963 1.623984-19.580925-5.920838-23.876756-15.282024-50.621833-27.890155-80.039781h69.344206c7.449654-0.382716 13.08499-2.482536 16.810841-6.208386 4.10652-4.10652 6.113219-9.646688 6.113219-16.809817-0.382716-6.304577-2.389415-11.748555-6.113219-16.142623-4.107543-4.870928-9.742879-7.354487-16.810841-7.354487h-54.824543v-128.083911h68.291226c7.449654-0.380669 12.989823-2.482536 16.71465-6.208387 4.108566-4.10652 6.208386-9.645665 6.208386-16.809817-0.382716-6.303554-2.387369-11.747532-6.208386-16.236767-4.011352-4.77576-9.647712-7.260343-16.71465-7.260343h-68.291226v-182.428525c0-7.449654-2.483559-13.659064-7.25932-18.434824-3.72585-4.107543-9.168805-6.399744-16.23779-6.781436-6.399744 0.381692-11.746508 2.484582-16.235744 6.207363-4.491282 4.871951-6.686269 11.175505-6.686269 19.007874V322.05633h-74.500635c-1.432626-10.028381-4.10652-22.922013-7.83237-38.586753-4.10652-16.810841-9.45533-33.236919-16.235744-49.284375-6.303554-15.282024-12.512963-27.60363-18.435848-36.867602-7.830323-12.703298-15.281001-23.018204-22.348962-30.84955-9.360163-11.175505-18.720326-20.727026-27.985322-28.559396-10.507287-7.831347-17.383891-12.416773-20.726003-13.944566-7.067962-4.489235-14.04178-6.017028-20.727025-4.489235-6.304577 1.145077-11.365839 4.67957-15.09169 10.601431-3.342111 6.399744-4.488212 12.512963-3.342111 18.528968 1.432626 6.303554 5.731527 11.748555 12.799488 16.237791 5.634313 2.961442 11.461007 7.258296 17.382868 12.799488 8.215086 6.780413 14.708974 13.083967 19.580925 19.100995 8.214062 8.883303 15.663717 19.007875 22.349986 30.18338 6.017028 9.35914 11.93889 20.915314 17.956941 34.669544 5.25262 13.849398 8.977447 25.981692 11.175505 36.391766 1.909486 7.83237 3.533469 15.856098 5.061262 24.069137h-64.376064c-7.83237 0-13.562873 2.293225-17.382868 6.686269-4.107543 4.107543-6.113219 9.742879-6.113219 16.810841 0.382716 6.399744 2.387369 11.746508 6.113219 16.23779 4.489235 4.489235 10.314906 6.780413 17.382868 6.780414h68.291226c0.382716 2.57975 0.574074 4.585426 0.574073 6.113219V496.655554h-0.002046z m46.420146-121.970692c-0.382716-1.909486-0.574074-3.915162-0.574074-6.113219h70.585474V496.655554h-70.0114v-121.970692z"  horiz-adv-x="1024" />

    
    <glyph glyph-name="xia" unicode="&#58972;" d="M128.128 575.488l380.8-383.68 387.392 381.504-768.192 2.176z"  horiz-adv-x="1024" />

    
    <glyph glyph-name="xingzhuang60kaobei2" unicode="&#58880;" d="M1077.529145 507.793752C1072.06379 524.466544 1056.511742 535.673981 1039.008769 535.673981L686.956883 535.673981 578.161726 868.175116C572.876243 884.792563 557.37954 896 539.765877 896 522.262904 896 506.710856 884.792563 501.370028 868.299643L392.450343 535.673981 40.467639 535.673981C22.909321 535.673981 7.398781 524.466544 2.002608 507.793752-3.462747 491.286996 2.528389 473.036861 16.682967 462.880986L301.504067 257.46665199999995 192.764255-75.21435499999995C187.243555-91.77645700000005 193.234691-109.86055599999997 207.444614-120.12712099999999 221.474665-130.338342 240.845544-130.338342 254.944776-120.12712099999999L539.765877 85.41173900000001 824.642322-120.12712099999999C831.629675-125.19122300000004 839.972989-127.82012799999995 848.371649-127.82012799999995 856.701127-127.82012799999995 865.099787-125.19122300000004 872.142485-120.12712099999999 886.297062-109.86055599999997 892.288199-91.77645700000005 886.767498-75.21435499999995L778.138377 257.46665199999995 1062.793441 462.880986C1076.934183 473.036861 1082.869974 491.286996 1077.529145 507.793752Z"  horiz-adv-x="1080" />

    
    <glyph glyph-name="icon-" unicode="&#58882;" d="M268.02606186-38.30899283999997a117.44211993 117.44211993 0 0 0-117.2812403 117.2812403V689.0277525399999A117.44211993 117.44211993 0 0 0 268.02606186 806.30899284h488.02831609a117.44211993 117.44211993 0 0 0 117.2812403-117.2812403v-609.97506528a117.44211993 117.44211993 0 0 0-117.2812403-117.28124029z m0 792.97562884a65.79976308 65.79976308 0 0 1-65.71932328-65.71932326v-609.97506528a65.79976308 65.79976308 0 0 1 65.71932328-65.71932326h488.02831609a65.79976308 65.79976308 0 0 1 65.71932328 65.71932326V689.0277525399999a65.79976308 65.79976308 0 0 1-65.71932328 65.71932326zM318.94446042 358.17882159a25.82117841 25.82117841 0 1 0 0 51.56191701h386.11107916a25.82117841 25.82117841 0 1 0 0-51.56191701zM318.94446042 236.23207242a25.82117841 25.82117841 0 1 0 0 51.24015779h263.44037172a25.82117841 25.82117841 0 1 0 0-51.64235684zM318.94446042 480.52776979a25.82117841 25.82117841 0 1 0 0 51.64235684h386.11107916a25.82117841 25.82117841 0 1 0 0-51.64235684z"  horiz-adv-x="1024" />

    
    <glyph glyph-name="rexiao" unicode="&#58954;" d="M512 896C230.4 896 0 665.6 0 384s230.4-512 512-512 512 230.4 512 512S793.6 896 512 896z m57.6-860.8c140.8 156.8-160 128-19.2 348.8-275.2-131.2-105.6-332.8-96-348.8-86.4 35.2-176 137.6-176 240 0 86.4 51.2 147.2 115.2 192 35.2 22.4 105.6 137.6 0 268.8 297.6-96 348.8-323.2 348.8-428.8 3.2-134.4-67.2-249.6-172.8-272z"  horiz-adv-x="1024" />

    
    <glyph glyph-name="yueliang" unicode="&#59011;" d="M834.713 726.096c-40.813 40.5-87.519 71.366-137.233 93.592 76.732-169.094 45.631-374.657-94.352-513.566-139.956-138.935-347.064-169.802-517.44-93.644 22.384-49.323 53.485-95.661 94.299-136.187 180.796-179.436 473.904-179.436 654.726 0 180.797 179.461 180.797 470.369 0 649.805zM490.503 443.46l-26.965 27.776 3.09-38.144-35.369-16.44 38.117-8.928 5.079-37.934 20.446 32.646 38.563-7.016-25.473 29.085 18.692 33.642-36.18-14.687z m-207.525 53.328l91.419 86.184 113.777-53.956-54.35 112.938 86.864 90.712-125.008-16.388-60.108 110.007-22.907-123.07-124.013-22.724 110.87-59.664-16.544-124.039z m-42.281-215.799l30.787 48.956 57.936-10.498-38.301 43.615 28.144 50.448-54.428-22.018-40.552 41.705 4.66-57.229-53.197-24.688 57.307-13.377 7.644-56.914z"  horiz-adv-x="1024" />

    


  </font>
</defs>
</svg>
